<?xml version="1.0" encoding="UTF-8" standalone="no"?>
<!-- Generator: Adobe Illustrator 24.2.0, SVG Export Plug-In . SVG Version: 6.00 Build 0)  -->

<svg
   version="1.1"
   id="Layer_1"
   x="0px"
   y="0px"
   viewBox="0 0 205.2 108"
   style="enable-background:new 0 0 205.2 108;"
   xml:space="preserve"
   sodipodi:docname="VT_White.svg"
   inkscape:version="1.3 (0e150ed, 2023-07-21)"
   xmlns:inkscape="http://www.inkscape.org/namespaces/inkscape"
   xmlns:sodipodi="http://sodipodi.sourceforge.net/DTD/sodipodi-0.dtd"
   xmlns="http://www.w3.org/2000/svg"
   xmlns:svg="http://www.w3.org/2000/svg"><defs
   id="defs15" /><sodipodi:namedview
   id="namedview15"
   pagecolor="#505050"
   bordercolor="#ffffff"
   borderopacity="1"
   inkscape:showpageshadow="0"
   inkscape:pageopacity="0"
   inkscape:pagecheckerboard="1"
   inkscape:deskcolor="#d1d1d1"
   inkscape:zoom="1.4387573"
   inkscape:cx="50.390709"
   inkscape:cy="46.567966"
   inkscape:window-width="1312"
   inkscape:window-height="449"
   inkscape:window-x="0"
   inkscape:window-y="25"
   inkscape:window-maximized="0"
   inkscape:current-layer="Layer_1" />&#10;<style
   type="text/css"
   id="style1">&#10;	.st0{fill:#FFFFFF;}&#10;</style>&#10;<g
   id="g1"
   transform="matrix(1.6999853,0,0,1.8156429,-70.263618,-19.345505)">&#10;	<path
   class="st0"
   d="m 108.92,16.7 c -6.48,0 -12.45,3.55 -15.53,9.26 l -3.8,7.02 -0.44,0.82 -0.43,0.79 v 0 L 77.25,55.8 58.51,20.78 h 8.33 l 6.71,12.47 3.52,6.54 3.63,-6.48 7.03,-12.54 h 6.08 c 1.47,-1.63 3.18,-3.01 5.07,-4.08 H 85.35 L 77.15,31.31 69.28,16.7 H 51.7 l 25.52,47.71 14.21,-26.26 2.36,-4.35 0.44,-0.82 2.73,-5.05 c 0.15,-0.28 0.31,-0.54 0.47,-0.81 1.82,-2.88 4.64,-4.95 7.87,-5.84 0.88,-0.24 1.79,-0.4 2.72,-0.47 0.31,-0.02 0.62,-0.03 0.93,-0.03 h 37.2 l -3.76,7 h -17.21 l -1.15,2.16 -15.92,29.92 h -8.44 l 13.97,-25.94 3.24,-6.02 H 100.12 C 99.15,29.43 97.78,32 97.78,32 h 12.25 l -17.2,31.95 h 17.73 l 17.08,-32.09 h 17.2 l 8.14,-15.16 z"
   id="path1" />&#10;</g>&#10;&#10;</svg>
